<svg width="18" height="18" viewBox="0 0 18 18" fill="none" xmlns="http://www.w3.org/2000/svg">
<g clip-path="url(#clip0_29_5)">
<path d="M7.72518 17.5784C6.21852 17.2668 4.81269 16.572 3.70903 15.5934C0.875597 13.081 -5.46758e-05 9.13412 1.49675 5.62239C1.86435 4.75996 2.46192 3.88468 3.20235 3.12429L3.85515 2.45396L3.90119 6.37747C3.94527 10.1331 3.95521 10.3222 4.13305 10.7955C4.48908 11.7423 4.87065 12.345 5.52765 12.9982C7.22467 14.6856 9.71392 15.1068 11.8301 14.0645C13.819 13.0849 15.0729 10.9546 14.9272 8.8029C14.8293 7.35754 14.3424 6.29777 13.2914 5.24177C12.4965 4.44328 11.5614 3.92166 10.5434 3.70901C9.50761 3.49267 9.55735 3.46108 9.55735 4.33636V5.09204L10.1252 5.19648C12.3243 5.60108 13.7788 7.75708 13.3204 9.93304C13.174 10.6279 12.8474 11.2417 12.3232 11.807C11.5266 12.666 10.4058 13.0766 9.42718 13.0748C7.80896 13.0716 6.45775 12.1536 5.8029 10.7959C5.8029 10.7959 5.6314 10.4079 5.57618 10.168C5.25197 8.75787 5.45931 5.78933 5.45931 5.78933L5.43418 1.44873L5.69083 1.3162C5.83197 1.24335 5.96736 1.18368 5.99171 1.18368C6.01598 1.18368 6.04685 3.17737 6.06031 5.614C6.06031 5.614 5.74862 8.80812 6.13371 10.0322C6.18928 10.2088 6.29483 10.5109 6.29483 10.5109C6.63242 11.1977 7.17357 11.8017 7.8767 12.1342C8.41039 12.3866 8.67912 12.5009 9.46868 12.5009C9.98463 12.5009 10.4417 12.3383 10.9675 12.0968C11.5875 11.8122 12.2986 11.0574 12.5614 10.3684C13.2855 8.46979 12.2773 6.42713 10.335 5.85756C9.54123 5.62479 9.55743 5.61203 9.55743 6.47379V7.22647L9.93841 7.32826C11.3119 7.69501 11.731 9.53298 10.6528 10.4773C10.2718 10.8111 9.92855 10.9585 9.32814 10.9585C8.6865 10.9585 8.07066 10.5707 7.75399 9.9761C7.56381 9.61885 7.54777 9.28009 7.54777 9.12479C7.54777 7.69133 7.51664 5.1131 7.51664 5.1131L7.49092 0.690733L7.68814 0.64185C7.79652 0.614797 8.23495 0.548278 8.66214 0.49383C10.1113 0.309254 12.2551 0.782678 13.6954 1.60548C15.659 2.72714 17.1448 4.65406 17.7635 6.88129C17.9763 7.64742 17.9999 7.87009 17.9999 9.10253C17.9999 10.3294 17.9757 10.5596 17.7674 11.3089C16.926 14.336 14.7857 16.4998 11.7254 17.4176C11.0812 17.6108 10.7796 17.6476 9.64309 17.6719C8.72594 17.6914 8.13145 17.6624 7.72518 17.5784Z" fill="#C60C30"/>
</g>
<defs>
<clipPath id="clip0_29_5">
<rect width="18" height="18" fill="white"/>
</clipPath>
</defs>
</svg>
