<svg xmlns="http://www.w3.org/2000/svg" width="438" height="175.41" viewBox="0 0 438 175.41"><defs><style>.mpro-1c{fill:#00bfa5;}.mpro-2c{fill:#666;}</style></defs><title>Meret.Pro</title><g id="Layer_2" data-name="Layer 2"><g id="Layer_1-2" data-name="Layer 1"><circle class="mpro-1c" cx="153.7" cy="152.12" r="23.3"/><circle class="mpro-1c" cx="384.12" cy="100.69" r="23.3"/><path class="mpro-2c" d="M244.83,11.65Q231.32,0,207.23,0H159.29V120.64a30.9,30.9,0,0,1,17.45,9.51,33.39,33.39,0,0,1,9.54,23.5h21.35a50.07,50.07,0,0,0-4.06-19.54,56.5,56.5,0,0,0-11.88-17.38,55.73,55.73,0,0,0-10.63-8.11v-21h26.17q24.08,0,37.6-11.54T258.36,44Q258.36,23.31,244.83,11.65ZM228.17,62.34q-7.2,5.73-23.25,5.72H181.06V19.79h23.86q16.05,0,23.25,5.77T235.38,44Q235.38,56.63,228.17,62.34Z"/><path class="mpro-2c" d="M327.19,52.89A28.35,28.35,0,0,0,316,50.47a23.39,23.39,0,0,0-14.68,5.28Q294.59,61,286.12,74.33V52.23H265.88v101.6h20.24V96.43q2.64-12.32,8.79-19.24t14.41-6.93a23.71,23.71,0,0,1,9.45,1.93,36.77,36.77,0,0,1,9.46,6.21l11-18A53.49,53.49,0,0,0,327.19,52.89Z"/><path class="mpro-2c" d="M433.93,80.68a56.54,56.54,0,0,0-11.87-17.37,54.88,54.88,0,0,0-17.43-11.49,52.93,52.93,0,0,0-20.4-4q-22.65,0-38.37,15.4a50.46,50.46,0,0,0-15.73,37.49,50.46,50.46,0,0,0,15.73,37.5q15.72,15.39,38.37,15.39a54.64,54.64,0,0,0,20.51-3.85,53.29,53.29,0,0,0,33.26-49A50.18,50.18,0,0,0,433.93,80.68Zm-26.88,44.15a31.52,31.52,0,0,1-46.13,0,33.72,33.72,0,0,1-9.57-24.19,33.47,33.47,0,0,1,9.57-24,31.66,31.66,0,0,1,46.18,0,33.47,33.47,0,0,1,9.57,24A33.71,33.71,0,0,1,407.05,124.83Z"/><path class="mpro-2c" d="M74.44,64.65,19.13,0H0V153.83H21.33V33.76l53.11,62,53.22-62v73.82a54.84,54.84,0,0,0-12.17,9,50.45,50.45,0,0,0-15.71,37H121a33.44,33.44,0,0,1,9.55-23.5A30.77,30.77,0,0,1,149,120.5v-2.63h0V0H129.86Z"/></g></g></svg>